# xmcd
#
# Track frame offsets: 
#        150
#        10421
#        21408
#        30836
#        41207
#
# Disc length: 722 seconds
#
# Revision: 0
# Processed by: cddbd v1.5.2PL0 Copyright (c) Steve Scherf et al.
# Submitted via: ExactAudioCopy v0.95b4
#
DISCID=3502d005
DTITLE=perilis Country - Good News
DYEAR=2006
DGENRE=Country
TTITLE0=Muddy River
TTITLE1=The River is wide
TTITLE2=Cripple Creek
TTITLE3=Good News
TTITLE4=Corinna
EXTD=
EXTT0=
EXTT1=
EXTT2=
EXTT3=
EXTT4=
PLAYORDER=
